FFmpeg version SVN-r25716, Copyright (c) 2000-2010 the FFmpeg developers  built on Nov 10 2010 12:23:18 with gcc 4.1.2 20080704 (Red Hat 4.1.2-48)  configuration: --enable-libmp3lame --enable-shared --disable-mmx --arch=x86_64  libavutil     50.33. 0 / 50.33. 0  libavcore      0.12. 1 /  0.12. 1  libavcodec    52.94. 4 / 52.94. 4  libavformat   52.84. 0 / 52.84. 0  libavdevice   52. 2. 2 / 52. 2. 2  libavfilter    1.59. 0 /  1.59. 0  libswscale     0.12. 0 /  0.12. 0Seems stream 0 codec frame rate differs from container frame rate: 1200.00 (1200/1) -> 20.00 (20/1)Input #0, mov,mp4,m4a,3gp,3g2,mj2, from '/RAID10/data/converted_video_files/8060.mov':  Metadata:    major_brand     : qt      minor_version   : 537199360    compatible_brands: qt    Duration: 00:00:23.85, start: 0.000000, bitrate: 975 kb/s    Stream #0.0(eng): Video: h264, yuv420p, 288x296, 973 kb/s, 20 fps, 20 tbr, 600 tbn, 1200 tbc[buffer @ 0x1094e10] w:288 h:296 pixfmt:yuv420pOutput #0, flv, to '/RAID10/data/converted_video_files/8060.flv':  Metadata:    encoder         : Lavf52.84.0    Stream #0.0(eng): Video: flv, yuv420p, 288x296, q=2-31, 600 kb/s, 1k tbn, 24 tbcStream mapping:  Stream #0.0 -> #0.0Press [q] to stop encodingframe=   80 fps=  0 q=5.5 size=     368kB time=4.00 bitrate= 754.7kbits/s    frame=  161 fps=160 q=5.9 size=     664kB time=8.04 bitrate= 676.2kbits/s    frame=  242 fps=160 q=5.6 size=     954kB time=12.08 bitrate= 647.0kbits/s    frame=  323 fps=161 q=5.3 size=    1236kB time=16.12 bitrate= 627.8kbits/s    frame=  404 fps=161 q=5.5 size=    1533kB time=20.17 bitrate= 622.9kbits/s    frame=  477 fps=161 q=5.4 Lsize=    1803kB time=23.83 bitrate= 619.8kbits/s    video:1795kB audio:0kB global headers:0kB muxing overhead 0.426524%